<svg width="17" height="16" viewBox="0 0 17 16" fill="none" xmlns="http://www.w3.org/2000/svg">
<path d="M16.679 0C17.1884 3.57333 17.1035 6.45333 16.3394 8.29333L9.3208 3.38667C10.7075 2.02667 13.5376 0.4 16.679 0Z" fill="#DADEE0"/>
<path d="M15.7734 8.05335L12.8867 4.50668C12.8867 4.50668 13.4244 2.56001 16.1696 1.20001C16.9903 4.29335 15.7734 8.05335 15.7734 8.05335Z" fill="#F7A4A4"/>
<path d="M14.6697 7.25334L12.8867 5.06667C12.8867 5.06667 13.6225 3.73334 15.3206 2.88C14.3301 4.88001 14.6697 7.25334 14.6697 7.25334Z" fill="#F78D8D"/>
<path d="M0.321086 0C-0.188327 3.57333 -0.103425 6.45333 0.660695 8.29333L7.67928 3.36C6.29254 2.02667 3.46247 0.4 0.321086 0Z" fill="#DADEE0"/>
<path d="M1.22662 8.05335L4.14159 4.50668C4.14159 4.50668 3.60388 2.56001 0.858708 1.20001C0.00968593 4.29335 1.22662 8.05335 1.22662 8.05335Z" fill="#F7A4A4"/>
<path d="M2.33038 7.25334L4.14163 5.06667C4.14163 5.06667 3.40581 3.73334 1.70776 2.88C2.66999 4.88001 2.33038 7.25334 2.33038 7.25334Z" fill="#F78D8D"/>
<path d="M15.9148 13.0133C16.1412 12.7733 16.311 12.5867 16.3959 12.4267C16.8487 11.7333 16.9902 11.0133 16.9902 11.0133L16.4242 11.12C16.4242 11.12 17.0751 10.4533 16.9053 9.04L16.3393 9.6C16.3393 9.6 16.877 8.16 16.4242 6.82666L15.8016 7.25333C15.8016 7.25333 15.9997 6.72 15.8299 6.34666L15.5752 6.53333C15.5752 6.53333 16.0563 5.28 15.6318 4.77333C15.3771 5.52 15.0941 5.52 15.0941 5.52C15.0941 5.52 15.4337 4.96 15.179 4.72C14.896 5.14666 14.6695 4.88 14.6695 4.74666C14.6978 4.58666 14.6129 4.34666 15.4337 4.21333C14.7827 3.84 13.9903 4.10666 13.9903 4.10666C13.9903 4.10666 14.0186 3.70666 14.5846 3.73333C14.0469 3.30666 13.3111 3.57333 13.3111 3.57333C12.1508 2.74666 10.5942 2.26666 8.47169 2.26666C6.37743 2.26666 4.82089 2.74666 3.63226 3.57333C3.63226 3.57333 2.89644 3.33333 2.35873 3.73333C2.92474 3.70666 2.95304 4.10666 2.95304 4.10666C2.95304 4.10666 2.18892 3.84 1.5097 4.21333C2.33043 4.32 2.27382 4.56 2.27382 4.74666C2.27382 4.88 2.04742 5.14666 1.76441 4.72C1.4814 4.96 1.84931 5.52 1.84931 5.52C1.84931 5.52 1.56631 5.52 1.3116 4.77333C0.887088 5.30666 1.3682 6.53333 1.3682 6.53333L1.11349 6.34666C0.94369 6.72 1.1418 7.25333 1.1418 7.25333L0.57578 6.82666C0.0946678 8.16 0.660683 9.6 0.660683 9.6L0.122969 9.04C-0.0751365 10.4533 0.57578 11.12 0.57578 11.12L0.00976562 11.0133C0.00976562 11.0133 0.151269 11.7333 0.604081 12.4267C0.660682 12.56 0.830487 12.7733 1.08519 13.0133L1.11349 13.04C2.27382 14.1333 5.1322 16 8.49999 16C11.8678 16 14.7261 14.1333 15.8865 13.04C15.8865 13.0133 15.9148 13.0133 15.9148 13.0133Z" fill="#DADEE0"/>
<path d="M10.1132 2.34672C9.60376 2.26672 9.06605 2.24005 8.50003 2.24005C7.93402 2.24005 7.3963 2.26672 6.88689 2.34672C7.085 3.38672 7.67931 4.10672 8.50003 5.44005C9.34906 4.08005 9.91507 3.36005 10.1132 2.34672ZM12.6885 3.14672C12.1508 2.85338 11.5282 2.64005 10.849 2.48005C11.0188 3.09338 11.3867 3.52005 11.8678 4.32005C12.2357 3.76005 12.4904 3.60005 12.6885 3.14672ZM6.15107 2.48005C5.44355 2.64005 4.84924 2.85338 4.31152 3.14672C4.50963 3.62672 4.79264 3.76005 5.13224 4.32005C5.64166 3.49338 5.98127 3.06672 6.15107 2.48005Z" fill="#94989B"/>
<path d="M9.63196 9.59998C9.40556 9.35998 8.69804 9.33331 8.49993 9.33331C8.30183 9.33331 7.59431 9.35998 7.3679 9.59998C7.1981 9.78665 7.3396 10.2133 7.76411 10.6133C8.04712 10.8533 8.30183 10.9333 8.49993 10.9333C8.69804 10.9333 8.98104 10.8533 9.23575 10.6133C9.68856 10.24 9.80177 9.78665 9.63196 9.59998Z" fill="#4C5359"/>
<path d="M6.32088 7.68002C6.32088 7.68002 6.17937 6.45335 5.04734 6.08002C3.77381 5.62669 2.89649 6.72002 2.64178 7.33336C2.30217 8.24002 2.72668 9.22669 2.86819 9.46669C2.95309 9.62669 3.91531 10.32 6.03787 9.65336C6.03787 9.65336 6.57558 8.64002 6.32088 7.68002Z" fill="white"/>
<path d="M6.32089 7.67998C6.20769 7.25331 6.00958 6.87998 5.66998 6.58665C5.52847 6.45331 5.33037 6.31998 5.13226 6.26665C5.04736 6.23998 4.93416 6.18665 4.82095 6.18665C4.76435 6.15998 4.65115 6.13331 4.53795 6.13331C4.11343 6.13331 3.74552 6.29331 3.43422 6.55998C3.12291 6.82665 2.8965 7.17331 2.7833 7.54665C2.6701 7.91998 2.6984 8.34665 2.7833 8.71998C2.8399 8.90665 2.8965 9.11998 2.9814 9.30665L3.00971 9.35998L3.03801 9.38665C3.06631 9.41331 3.09461 9.43998 3.15121 9.46665C3.23611 9.51998 3.32101 9.57331 3.40592 9.59998C3.80213 9.75998 4.22664 9.81331 4.67945 9.81331C5.13226 9.81331 5.58507 9.73331 6.03788 9.62664C5.61337 9.81331 5.16056 9.91998 4.70775 9.99998C4.25494 10.0533 3.74552 10.0533 3.29271 9.89331C3.17951 9.86664 3.06631 9.81331 2.9531 9.73331C2.8965 9.70665 2.8399 9.65331 2.7833 9.62664C2.755 9.62664 2.755 9.59998 2.7267 9.57331L2.6984 9.54665L2.6701 9.51998L2.6135 9.43998C2.50029 9.22665 2.41539 9.01331 2.35879 8.79998C2.24559 8.37331 2.21728 7.89331 2.33049 7.43998C2.47199 6.98665 2.755 6.58665 3.12291 6.26665C3.49082 5.97331 4.00023 5.75998 4.50964 5.81331C4.62285 5.83998 4.76435 5.83998 4.87755 5.89331C4.99076 5.91998 5.10396 5.97331 5.21716 6.02665C5.44357 6.13331 5.61337 6.29331 5.78318 6.45331C6.12279 6.82665 6.29259 7.25331 6.32089 7.67998Z" fill="#B2B6B8"/>
<path d="M10.6792 7.68002C10.6792 7.68002 10.8207 6.45335 11.9527 6.08002C13.2263 5.62669 14.1036 6.72002 14.3583 7.33336C14.6979 8.24002 14.2734 9.22669 14.1319 9.46669C14.047 9.62669 13.0848 10.32 10.9622 9.65336C10.9622 9.65336 10.4245 8.64002 10.6792 7.68002Z" fill="white"/>
<path d="M10.6792 7.67998C10.7075 7.25331 10.8773 6.82665 11.1603 6.45331C11.3018 6.26665 11.4999 6.13331 11.7263 6.02665C11.8395 5.97331 11.9527 5.91998 12.0659 5.89331C12.1791 5.86665 12.3206 5.83998 12.4338 5.81331C12.9433 5.75998 13.4527 5.97331 13.8206 6.26665C14.1885 6.58665 14.4715 6.95998 14.613 7.43998C14.7262 7.89331 14.6979 8.37331 14.5847 8.82664C14.5281 9.03998 14.4432 9.25331 14.33 9.46665L14.2734 9.54665L14.2451 9.57331V9.59998L14.1885 9.65331C14.1319 9.70665 14.0753 9.73331 14.0187 9.75998L13.6791 9.91998C13.198 10.08 12.7169 10.08 12.264 10.0266C11.8112 9.94664 11.3584 9.83998 10.9339 9.65331C11.3867 9.73331 11.8395 9.81331 12.2923 9.83998C12.7452 9.83998 13.198 9.78664 13.5659 9.62664C13.6508 9.59998 13.764 9.54664 13.8206 9.49331C13.8489 9.46665 13.9055 9.43998 13.9338 9.41331L13.9621 9.38665L13.9904 9.33331C14.0753 9.14665 14.1319 8.95998 14.1885 8.74665C14.2734 8.34665 14.3017 7.94665 14.1885 7.57331C14.0753 7.19998 13.8489 6.85331 13.5376 6.58665C13.2263 6.31998 12.8584 6.15998 12.4338 6.15998C12.3206 6.15998 12.2357 6.18665 12.1225 6.18665C12.0093 6.21331 11.9244 6.23998 11.8112 6.26665C11.6131 6.34665 11.4433 6.45331 11.2735 6.58665C10.9905 6.87998 10.7924 7.27998 10.6792 7.67998Z" fill="#B2B6B8"/>
<path d="M11.8959 9.33335C12.5211 9.33335 13.028 8.79609 13.028 8.13335C13.028 7.47061 12.5211 6.93335 11.8959 6.93335C11.2707 6.93335 10.7639 7.47061 10.7639 8.13335C10.7639 8.79609 11.2707 9.33335 11.8959 9.33335Z" fill="#4C5359"/>
<path d="M5.10383 9.33335C5.72903 9.33335 6.23586 8.79609 6.23586 8.13335C6.23586 7.47061 5.72903 6.93335 5.10383 6.93335C4.47863 6.93335 3.9718 7.47061 3.9718 8.13335C3.9718 8.79609 4.47863 9.33335 5.10383 9.33335Z" fill="#4C5359"/>
<path d="M12.179 11.92C12.179 11.76 12.0658 11.5467 11.7828 11.4933C11.047 11.3333 9.91493 11.2 8.4999 11.2C7.08486 11.2 5.95283 11.3333 5.21701 11.4667C4.934 11.52 4.8208 11.7333 4.8208 11.8933C4.8208 13.4133 6.03773 14.9333 8.4999 14.9333C10.9621 14.9333 12.179 13.4133 12.179 11.92Z" fill="#4C5359"/>
<path d="M6.66052 14.0267C7.19824 14.2667 7.79255 14.4 8.50007 14.4C9.20759 14.4 9.8019 14.2667 10.3396 14.0267C9.83021 13.76 9.20759 13.6 8.50007 13.6C7.79255 13.6 7.16994 13.76 6.66052 14.0267Z" fill="#FF717F"/>
</svg>
